<svg xmlns="http://www.w3.org/2000/svg" viewBox="0 0 800 1100" width="800" height="1100">
  <defs>
    <filter id="neonPink" x="-50%" y="-50%" width="200%" height="200%">
      <feGaussianBlur stdDeviation="6" result="blur"/>
      <feColorMatrix in="blur" type="matrix" values="1 0 0 0 0.2  0 0 0 0 0  0 0 1 0 0.4  0 0 0 1 0" result="pink"/>
      <feMerge><feMergeNode in="pink"/><feMergeNode in="SourceGraphic"/></feMerge>
    </filter>
    <filter id="neonCyan" x="-50%" y="-50%" width="200%" height="200%">
      <feGaussianBlur stdDeviation="5" result="blur"/>
      <feColorMatrix in="blur" type="matrix" values="0 0 0 0 0  0 1 0 0 0.8  0 0 1 0 1  0 0 0 1 0" result="cyan"/>
      <feMerge><feMergeNode in="cyan"/><feMergeNode in="SourceGraphic"/></feMerge>
    </filter>
    <filter id="neonYellow" x="-50%" y="-50%" width="200%" height="200%">
      <feGaussianBlur stdDeviation="4" result="blur"/>
      <feColorMatrix in="blur" type="matrix" values="1 0 0 0 0.2  0 1 0 0 0.1  0 0 0 0 0  0 0 0 1 0" result="yel"/>
      <feMerge><feMergeNode in="yel"/><feMergeNode in="SourceGraphic"/></feMerge>
    </filter>
    <filter id="neonGreen" x="-50%" y="-50%" width="200%" height="200%">
      <feGaussianBlur stdDeviation="5" result="blur"/>
      <feColorMatrix in="blur" type="matrix" values="0 0 0 0 0  0 1 0 0 0.3  0 0 0.4 0 0  0 0 0 1 0" result="grn"/>
      <feMerge><feMergeNode in="grn"/><feMergeNode in="SourceGraphic"/></feMerge>
    </filter>
    <filter id="glitch">
      <feOffset in="SourceGraphic" dx="3" dy="0" result="r"/>
      <feColorMatrix in="r" type="matrix" values="1 0 0 0 0  0 0 0 0 0  0 0 0 0 0  0 0 0 0.4 0" result="red"/>
      <feOffset in="SourceGraphic" dx="-3" dy="0" result="c"/>
      <feColorMatrix in="c" type="matrix" values="0 0 0 0 0  0 0 0 0 0  0 0 1 0 0  0 0 0 0.4 0" result="blue"/>
      <feMerge><feMergeNode in="red"/><feMergeNode in="blue"/><feMergeNode in="SourceGraphic"/></feMerge>
    </filter>
    <filter id="heavyGlow" x="-50%" y="-50%" width="200%" height="200%">
      <feGaussianBlur stdDeviation="8" result="blur"/>
      <feMerge><feMergeNode in="blur"/><feMergeNode in="blur"/><feMergeNode in="SourceGraphic"/></feMerge>
    </filter>
    <linearGradient id="bgGrad" x1="0" y1="0" x2="0" y2="1">
      <stop offset="0%" stop-color="#0a0012"/>
      <stop offset="30%" stop-color="#0d0020"/>
      <stop offset="60%" stop-color="#0a0018"/>
      <stop offset="100%" stop-color="#05000a"/>
    </linearGradient>
    <linearGradient id="gridFade" x1="0" y1="0" x2="0" y2="1">
      <stop offset="0%" stop-color="#ff00aa" stop-opacity="0"/>
      <stop offset="60%" stop-color="#ff00aa" stop-opacity="0.06"/>
      <stop offset="100%" stop-color="#ff00aa" stop-opacity="0.15"/>
    </linearGradient>
    <radialGradient id="vignette" cx="50%" cy="45%" r="55%">
      <stop offset="0%" stop-color="transparent"/>
      <stop offset="100%" stop-color="#000" stop-opacity="0.7"/>
    </radialGradient>
    <pattern id="grid" width="40" height="40" patternUnits="userSpaceOnUse">
      <path d="M 40 0 L 0 0 0 40" fill="none" stroke="#ff00aa" stroke-width="0.3" opacity="0.15"/>
    </pattern>
    <pattern id="scanlines" width="4" height="4" patternUnits="userSpaceOnUse">
      <rect width="4" height="2" fill="#000" opacity="0.1"/>
    </pattern>
  </defs>

  <!-- Background -->
  <rect width="800" height="1100" fill="url(#bgGrad)"/>

  <!-- Perspective grid floor -->
  <g opacity="0.5">
    <rect x="0" y="600" width="800" height="500" fill="url(#gridFade)"/>
    <rect x="0" y="0" width="800" height="1100" fill="url(#grid)"/>
  </g>

  <!-- Ambient neon haze -->
  <ellipse cx="400" cy="400" rx="350" ry="200" fill="#ff00cc" opacity="0.03"/>
  <ellipse cx="250" cy="600" rx="200" ry="150" fill="#00ffff" opacity="0.025"/>
  <ellipse cx="600" cy="300" rx="180" ry="120" fill="#aa00ff" opacity="0.03"/>

  <!-- Stars -->
  <g opacity="0.5">
    <circle cx="45" cy="30" r="1" fill="#ff88ff"/>
    <circle cx="120" cy="85" r="1.5" fill="#88ffff"/>
    <circle cx="230" cy="50" r="1" fill="#ffaaff"/>
    <circle cx="340" cy="120" r="0.8" fill="#00ffcc"/>
    <circle cx="450" cy="40" r="1.2" fill="#ff66ff"/>
    <circle cx="560" cy="90" r="1" fill="#66ffff"/>
    <circle cx="670" cy="60" r="1.5" fill="#ff88cc"/>
    <circle cx="750" cy="130" r="0.8" fill="#88ffcc"/>
    <circle cx="80" cy="200" r="1" fill="#cc88ff"/>
    <circle cx="500" cy="210" r="1.1" fill="#ff44aa"/>
    <circle cx="620" cy="170" r="1" fill="#44ffcc"/>
    <circle cx="720" cy="240" r="1.4" fill="#ff66ff"/>
    <circle cx="170" cy="300" r="0.9" fill="#88ffff"/>
    <circle cx="290" cy="180" r="1.2" fill="#ffaacc"/>
    <circle cx="760" cy="390" r="0.7" fill="#cc66ff"/>
    <circle cx="55" cy="420" r="1.1" fill="#66ffcc"/>
    <circle cx="730" cy="490" r="1" fill="#ff88ff"/>
  </g>

  <!-- ===== SCORE (cyberpunk HUD style) ===== -->
  <text x="120" y="38" font-family="'Courier New', monospace" font-size="13" fill="#00ffcc" letter-spacing="3" opacity="0.7" filter="url(#neonCyan)">PLR_01</text>
  <text x="115" y="58" font-family="'Courier New', monospace" font-size="15" fill="#00ffff" letter-spacing="2" filter="url(#neonCyan)">038,400</text>
  <text x="540" y="38" font-family="'Courier New', monospace" font-size="13" fill="#ff00aa" letter-spacing="3" opacity="0.7" filter="url(#neonPink)">HI_SCORE</text>
  <text x="555" y="58" font-family="'Courier New', monospace" font-size="15" fill="#ff44cc" letter-spacing="2" filter="url(#neonPink)">999,999</text>

  <!-- ===== TITLE "GALAGA" with glitch + neon ===== -->
  <g filter="url(#glitch)">
    <g filter="url(#neonPink)">
      <!-- G -->
      <g fill="#ff0088">
        <rect x="100" y="80" width="80" height="14" rx="1"/>
        <rect x="100" y="80" width="14" height="72" rx="1"/>
        <rect x="100" y="138" width="80" height="14" rx="1"/>
        <rect x="166" y="112" width="14" height="40" rx="1"/>
        <rect x="140" y="112" width="40" height="14" rx="1"/>
      </g>
      <!-- A -->
      <g fill="#ff0088">
        <rect x="200" y="80" width="14" height="72" rx="1"/>
        <rect x="264" y="80" width="14" height="72" rx="1"/>
        <rect x="200" y="80" width="78" height="14" rx="1"/>
        <rect x="200" y="112" width="78" height="14" rx="1"/>
      </g>
      <!-- L -->
      <g fill="#ff0088">
        <rect x="298" y="80" width="14" height="72" rx="1"/>
        <rect x="298" y="138" width="68" height="14" rx="1"/>
      </g>
      <!-- A -->
      <g fill="#ff0088">
        <rect x="386" y="80" width="14" height="72" rx="1"/>
        <rect x="450" y="80" width="14" height="72" rx="1"/>
        <rect x="386" y="80" width="78" height="14" rx="1"/>
        <rect x="386" y="112" width="78" height="14" rx="1"/>
      </g>
      <!-- G -->
      <g fill="#ff0088">
        <rect x="484" y="80" width="80" height="14" rx="1"/>
        <rect x="484" y="80" width="14" height="72" rx="1"/>
        <rect x="484" y="138" width="80" height="14" rx="1"/>
        <rect x="550" y="112" width="14" height="40" rx="1"/>
        <rect x="524" y="112" width="40" height="14" rx="1"/>
      </g>
      <!-- A -->
      <g fill="#ff0088">
        <rect x="584" y="80" width="14" height="72" rx="1"/>
        <rect x="648" y="80" width="14" height="72" rx="1"/>
        <rect x="584" y="80" width="78" height="14" rx="1"/>
        <rect x="584" y="112" width="78" height="14" rx="1"/>
      </g>
    </g>
  </g>

  <!-- Subtitle -->
  <text x="400" y="195" text-anchor="middle" font-family="'Courier New', monospace" font-size="14" fill="#00ffcc" letter-spacing="10" filter="url(#neonCyan)" opacity="0.9">// CHALLENGING STAGE //</text>

  <!-- Decorative neon lines -->
  <line x1="80" y1="215" x2="720" y2="215" stroke="#ff0088" stroke-width="1" opacity="0.6" filter="url(#neonPink)"/>
  <line x1="100" y1="220" x2="700" y2="220" stroke="#00ffcc" stroke-width="0.5" opacity="0.3"/>

  <!-- Glitch bar decorations -->
  <rect x="60" y="168" width="120" height="3" fill="#ff0088" opacity="0.4"/>
  <rect x="620" y="172" width="100" height="2" fill="#00ffff" opacity="0.3"/>
  <rect x="200" y="165" width="60" height="2" fill="#ffff00" opacity="0.2"/>

  <!-- ===== ALIEN FORMATION ===== -->

  <!-- Row 1: Boss Galaga — cyberpunk neon green -->
  <g filter="url(#neonGreen)">
    <g id="cboss">
      <rect x="0" y="0" width="8" height="8" fill="#00ff66"/>
      <rect x="56" y="0" width="8" height="8" fill="#00ff66"/>
      <rect x="8" y="8" width="8" height="8" fill="#00ff66"/>
      <rect x="48" y="8" width="8" height="8" fill="#00ff66"/>
      <rect x="16" y="8" width="32" height="8" fill="#44ffaa"/>
      <rect x="8" y="16" width="48" height="8" fill="#44ffaa"/>
      <rect x="0" y="24" width="64" height="8" fill="#00ff66"/>
      <rect x="16" y="24" width="8" height="8" fill="#ff00ff" opacity="0.9"/>
      <rect x="40" y="24" width="8" height="8" fill="#ff00ff" opacity="0.9"/>
      <rect x="8" y="32" width="48" height="8" fill="#44ffaa"/>
      <rect x="16" y="40" width="32" height="8" fill="#00ff66"/>
    </g>
  </g>
  <use href="#cboss" x="260" y="260" filter="url(#neonGreen)"/>
  <use href="#cboss" x="340" y="260" filter="url(#neonGreen)"/>
  <use href="#cboss" x="420" y="260" filter="url(#neonGreen)"/>
  <use href="#cboss" x="500" y="260" filter="url(#neonGreen)"/>

  <!-- Row 2-3: Butterfly aliens — cyberpunk magenta/pink -->
  <g id="cbutterfly">
    <rect x="8" y="0" width="8" height="8" fill="#ff0088"/>
    <rect x="24" y="0" width="8" height="8" fill="#ff0088"/>
    <rect x="0" y="8" width="8" height="8" fill="#ff0088"/>
    <rect x="8" y="8" width="8" height="8" fill="#ff44aa"/>
    <rect x="16" y="8" width="8" height="8" fill="#ff0088"/>
    <rect x="24" y="8" width="8" height="8" fill="#ff44aa"/>
    <rect x="32" y="8" width="8" height="8" fill="#ff0088"/>
    <rect x="0" y="16" width="40" height="8" fill="#ff0088"/>
    <rect x="8" y="16" width="8" height="8" fill="#ffff00"/>
    <rect x="24" y="16" width="8" height="8" fill="#ffff00"/>
    <rect x="8" y="24" width="24" height="8" fill="#ff44aa"/>
    <rect x="0" y="32" width="8" height="8" fill="#ff0088"/>
    <rect x="32" y="32" width="8" height="8" fill="#ff0088"/>
  </g>
  <use href="#cbutterfly" x="170" y="330" filter="url(#neonPink)"/>
  <use href="#cbutterfly" x="220" y="330" filter="url(#neonPink)"/>
  <use href="#cbutterfly" x="270" y="330" filter="url(#neonPink)"/>
  <use href="#cbutterfly" x="320" y="330" filter="url(#neonPink)"/>
  <use href="#cbutterfly" x="370" y="330" filter="url(#neonPink)"/>
  <use href="#cbutterfly" x="420" y="330" filter="url(#neonPink)"/>
  <use href="#cbutterfly" x="470" y="330" filter="url(#neonPink)"/>
  <use href="#cbutterfly" x="520" y="330" filter="url(#neonPink)"/>
  <use href="#cbutterfly" x="570" y="330" filter="url(#neonPink)"/>

  <use href="#cbutterfly" x="170" y="385" filter="url(#neonPink)"/>
  <use href="#cbutterfly" x="220" y="385" filter="url(#neonPink)"/>
  <use href="#cbutterfly" x="270" y="385" filter="url(#neonPink)"/>
  <use href="#cbutterfly" x="320" y="385" filter="url(#neonPink)"/>
  <use href="#cbutterfly" x="370" y="385" filter="url(#neonPink)"/>
  <use href="#cbutterfly" x="420" y="385" filter="url(#neonPink)"/>
  <use href="#cbutterfly" x="470" y="385" filter="url(#neonPink)"/>
  <use href="#cbutterfly" x="520" y="385" filter="url(#neonPink)"/>
  <use href="#cbutterfly" x="570" y="385" filter="url(#neonPink)"/>

  <!-- Row 4-5: Bee aliens — cyberpunk cyan -->
  <g id="cbee">
    <rect x="16" y="0" width="8" height="8" fill="#00ffff"/>
    <rect x="8" y="8" width="24" height="8" fill="#00ffff"/>
    <rect x="0" y="16" width="40" height="8" fill="#00aaff"/>
    <rect x="8" y="16" width="8" height="8" fill="#ccffff"/>
    <rect x="24" y="16" width="8" height="8" fill="#ccffff"/>
    <rect x="8" y="24" width="24" height="8" fill="#00ffff"/>
    <rect x="0" y="24" width="8" height="8" fill="#00aaff"/>
    <rect x="32" y="24" width="8" height="8" fill="#00aaff"/>
  </g>
  <use href="#cbee" x="150" y="440" filter="url(#neonCyan)"/>
  <use href="#cbee" x="200" y="440" filter="url(#neonCyan)"/>
  <use href="#cbee" x="250" y="440" filter="url(#neonCyan)"/>
  <use href="#cbee" x="300" y="440" filter="url(#neonCyan)"/>
  <use href="#cbee" x="350" y="440" filter="url(#neonCyan)"/>
  <use href="#cbee" x="400" y="440" filter="url(#neonCyan)"/>
  <use href="#cbee" x="450" y="440" filter="url(#neonCyan)"/>
  <use href="#cbee" x="500" y="440" filter="url(#neonCyan)"/>
  <use href="#cbee" x="550" y="440" filter="url(#neonCyan)"/>
  <use href="#cbee" x="600" y="440" filter="url(#neonCyan)"/>

  <use href="#cbee" x="150" y="490" filter="url(#neonCyan)"/>
  <use href="#cbee" x="200" y="490" filter="url(#neonCyan)"/>
  <use href="#cbee" x="250" y="490" filter="url(#neonCyan)"/>
  <use href="#cbee" x="300" y="490" filter="url(#neonCyan)"/>
  <use href="#cbee" x="350" y="490" filter="url(#neonCyan)"/>
  <use href="#cbee" x="400" y="490" filter="url(#neonCyan)"/>
  <use href="#cbee" x="450" y="490" filter="url(#neonCyan)"/>
  <use href="#cbee" x="500" y="490" filter="url(#neonCyan)"/>
  <use href="#cbee" x="550" y="490" filter="url(#neonCyan)"/>
  <use href="#cbee" x="600" y="490" filter="url(#neonCyan)"/>

  <!-- ===== PLAYER SHIP — neon cyan ===== -->
  <g transform="translate(370, 830)" filter="url(#neonCyan)">
    <rect x="24" y="0" width="8" height="8" fill="#ffffff"/>
    <rect x="16" y="8" width="24" height="8" fill="#ccffff"/>
    <rect x="16" y="16" width="24" height="8" fill="#00ffff"/>
    <rect x="8" y="24" width="40" height="8" fill="#00ccff"/>
    <rect x="0" y="32" width="56" height="8" fill="#0088ff"/>
    <rect x="0" y="40" width="8" height="8" fill="#0088ff"/>
    <rect x="24" y="40" width="8" height="8" fill="#0088ff"/>
    <rect x="48" y="40" width="8" height="8" fill="#0088ff"/>
  </g>

  <!-- Laser beam — hot pink -->
  <rect x="396" y="570" width="4" height="260" fill="#ff00ff" opacity="0.85" filter="url(#heavyGlow)"/>
  <rect x="397" y="570" width="2" height="260" fill="#ffffff" opacity="0.5"/>

  <!-- Explosion -->
  <g transform="translate(388, 545)" filter="url(#heavyGlow)">
    <rect x="8" y="0" width="8" height="8" fill="#ffff00" opacity="0.9"/>
    <rect x="0" y="8" width="8" height="8" fill="#ff00ff" opacity="0.8"/>
    <rect x="16" y="8" width="8" height="8" fill="#ff0088" opacity="0.7"/>
    <rect x="8" y="16" width="8" height="8" fill="#ffff00" opacity="0.9"/>
    <rect x="-8" y="16" width="8" height="8" fill="#ff00cc" opacity="0.5"/>
    <rect x="24" y="0" width="8" height="8" fill="#00ffff" opacity="0.5"/>
    <rect x="24" y="16" width="8" height="8" fill="#ff44ff" opacity="0.4"/>
    <rect x="-8" y="0" width="8" height="8" fill="#00ffcc" opacity="0.3"/>
  </g>

  <!-- ===== BOTTOM HUD ===== -->
  <!-- Glitch bars -->
  <rect x="60" y="905" width="680" height="1" fill="#ff0088" opacity="0.4"/>
  <rect x="80" y="910" width="640" height="0.5" fill="#00ffff" opacity="0.3"/>

  <!-- Lives -->
  <g transform="translate(60, 935)" filter="url(#neonCyan)">
    <rect x="8" y="0" width="4" height="4" fill="#00ffff"/>
    <rect x="4" y="4" width="12" height="4" fill="#00aaff"/>
    <rect x="0" y="8" width="20" height="4" fill="#0088cc"/>
    <rect x="38" y="0" width="4" height="4" fill="#00ffff"/>
    <rect x="34" y="4" width="12" height="4" fill="#00aaff"/>
    <rect x="30" y="8" width="20" height="4" fill="#0088cc"/>
  </g>

  <text x="400" y="948" text-anchor="middle" font-family="'Courier New', monospace" font-size="13" fill="#ff0088" letter-spacing="8" filter="url(#neonPink)" opacity="0.8">STG_03</text>

  <!-- Footer -->
  <line x1="100" y1="975" x2="700" y2="975" stroke="#ff0088" stroke-width="0.5" opacity="0.2"/>
  <text x="400" y="1010" text-anchor="middle" font-family="'Courier New', monospace" font-size="11" fill="#ff0088" letter-spacing="4" opacity="0.5">© 1981 NAMCO // NEON DISTRICT ED.</text>
  <text x="400" y="1040" text-anchor="middle" font-family="'Courier New', monospace" font-size="12" fill="#00ffcc" letter-spacing="5" filter="url(#neonCyan)" opacity="0.6">INSERT CREDIT ▮</text>

  <!-- Scanline overlay -->
  <rect width="800" height="1100" fill="url(#scanlines)" pointer-events="none" opacity="0.4"/>
  <!-- Vignette -->
  <rect width="800" height="1100" fill="url(#vignette)" pointer-events="none"/>
</svg>