<svg xmlns="http://www.w3.org/2000/svg" viewBox="0 0 800 1100" width="800" height="1100">
  <defs>
    <filter id="neonPink" x="-50%" y="-50%" width="200%" height="200%">
      <feGaussianBlur stdDeviation="6" result="blur"/>
      <feColorMatrix in="blur" type="matrix" values="1 0 0 0 0.2  0 0 0 0 0  0 0 1 0 0.4  0 0 0 1 0" result="pink"/>
      <feMerge><feMergeNode in="pink"/><feMergeNode in="SourceGraphic"/></feMerge>
    </filter>
    <filter id="neonCyan" x="-50%" y="-50%" width="200%" height="200%">
      <feGaussianBlur stdDeviation="5" result="blur"/>
      <feColorMatrix in="blur" type="matrix" values="0 0 0 0 0  0 1 0 0 0.8  0 0 1 0 1  0 0 0 1 0" result="cyan"/>
      <feMerge><feMergeNode in="cyan"/><feMergeNode in="SourceGraphic"/></feMerge>
    </filter>
    <filter id="neonYellow" x="-50%" y="-50%" width="200%" height="200%">
      <feGaussianBlur stdDeviation="6" result="blur"/>
      <feColorMatrix in="blur" type="matrix" values="1 0 0 0 0.3  0 1 0 0 0.2  0 0 0 0 0  0 0 0 1 0" result="yel"/>
      <feMerge><feMergeNode in="yel"/><feMergeNode in="SourceGraphic"/></feMerge>
    </filter>
    <filter id="neonRed" x="-50%" y="-50%" width="200%" height="200%">
      <feGaussianBlur stdDeviation="5" result="blur"/>
      <feColorMatrix in="blur" type="matrix" values="1 0 0 0 0.3  0 0 0 0 0  0 0 0.2 0 0  0 0 0 1 0" result="r"/>
      <feMerge><feMergeNode in="r"/><feMergeNode in="SourceGraphic"/></feMerge>
    </filter>
    <filter id="neonOrange" x="-50%" y="-50%" width="200%" height="200%">
      <feGaussianBlur stdDeviation="5" result="blur"/>
      <feColorMatrix in="blur" type="matrix" values="1 0 0 0 0.2  0 0.5 0 0 0.1  0 0 0 0 0  0 0 0 1 0" result="o"/>
      <feMerge><feMergeNode in="o"/><feMergeNode in="SourceGraphic"/></feMerge>
    </filter>
    <filter id="glitch">
      <feOffset in="SourceGraphic" dx="3" dy="0" result="r"/>
      <feColorMatrix in="r" type="matrix" values="1 0 0 0 0  0 0 0 0 0  0 0 0 0 0  0 0 0 0.35 0" result="red"/>
      <feOffset in="SourceGraphic" dx="-3" dy="0" result="c"/>
      <feColorMatrix in="c" type="matrix" values="0 0 0 0 0  0 0 0 0 0  0 0 1 0 0  0 0 0 0.35 0" result="blue"/>
      <feMerge><feMergeNode in="red"/><feMergeNode in="blue"/><feMergeNode in="SourceGraphic"/></feMerge>
    </filter>
    <filter id="heavyGlow" x="-50%" y="-50%" width="200%" height="200%">
      <feGaussianBlur stdDeviation="8" result="blur"/>
      <feMerge><feMergeNode in="blur"/><feMergeNode in="blur"/><feMergeNode in="SourceGraphic"/></feMerge>
    </filter>
    <linearGradient id="bgGrad" x1="0" y1="0" x2="0" y2="1">
      <stop offset="0%" stop-color="#08000f"/>
      <stop offset="35%" stop-color="#0c0018"/>
      <stop offset="70%" stop-color="#0a0014"/>
      <stop offset="100%" stop-color="#040008"/>
    </linearGradient>
    <radialGradient id="vignette" cx="50%" cy="45%" r="55%">
      <stop offset="0%" stop-color="transparent"/>
      <stop offset="100%" stop-color="#000" stop-opacity="0.7"/>
    </radialGradient>
    <pattern id="grid" width="40" height="40" patternUnits="userSpaceOnUse">
      <path d="M 40 0 L 0 0 0 40" fill="none" stroke="#ff00aa" stroke-width="0.3" opacity="0.12"/>
    </pattern>
    <pattern id="scanlines" width="4" height="4" patternUnits="userSpaceOnUse">
      <rect width="4" height="2" fill="#000" opacity="0.1"/>
    </pattern>
  </defs>

  <!-- Background -->
  <rect width="800" height="1100" fill="url(#bgGrad)"/>
  <rect x="0" y="0" width="800" height="1100" fill="url(#grid)"/>

  <!-- Ambient neon haze -->
  <ellipse cx="400" cy="500" rx="300" ry="250" fill="#ff00cc" opacity="0.025"/>
  <ellipse cx="200" cy="350" rx="180" ry="130" fill="#00ffff" opacity="0.02"/>
  <ellipse cx="600" cy="700" rx="200" ry="150" fill="#aa00ff" opacity="0.025"/>

  <!-- ===== SCORE HUD ===== -->
  <text x="140" y="38" text-anchor="middle" font-family="'Courier New', monospace" font-size="13" fill="#00ffcc" letter-spacing="3" opacity="0.7" filter="url(#neonCyan)">PLR_01</text>
  <text x="140" y="58" text-anchor="middle" font-family="'Courier New', monospace" font-size="15" fill="#00ffff" letter-spacing="2" filter="url(#neonCyan)">016,200</text>
  <text x="540" y="38" font-family="'Courier New', monospace" font-size="13" fill="#ff00aa" letter-spacing="3" opacity="0.7" filter="url(#neonPink)">HI_SCORE</text>
  <text x="555" y="58" font-family="'Courier New', monospace" font-size="15" fill="#ff44cc" letter-spacing="2" filter="url(#neonPink)">999,990</text>

  <!-- ===== TITLE "PAC-MAN" with glitch ===== -->
  <g filter="url(#glitch)">
    <g filter="url(#neonYellow)">
      <!-- P -->
      <g fill="#ffee00">
        <rect x="130" y="82" width="14" height="68" rx="1"/>
        <rect x="130" y="82" width="58" height="14" rx="1"/>
        <rect x="174" y="82" width="14" height="40" rx="1"/>
        <rect x="130" y="108" width="58" height="14" rx="1"/>
      </g>
      <!-- A -->
      <g fill="#ffee00">
        <rect x="205" y="82" width="14" height="68" rx="1"/>
        <rect x="205" y="82" width="58" height="14" rx="1"/>
        <rect x="249" y="82" width="14" height="68" rx="1"/>
        <rect x="205" y="108" width="58" height="14" rx="1"/>
      </g>
      <!-- C -->
      <g fill="#ffee00">
        <rect x="280" y="82" width="58" height="14" rx="1"/>
        <rect x="280" y="82" width="14" height="68" rx="1"/>
        <rect x="280" y="136" width="58" height="14" rx="1"/>
      </g>
      <!-- - -->
      <rect x="348" y="108" width="22" height="14" fill="#ffee00" rx="1"/>
      <!-- M -->
      <g fill="#ffee00">
        <rect x="382" y="82" width="14" height="68" rx="1"/>
        <rect x="382" y="82" width="68" height="14" rx="1"/>
        <rect x="436" y="82" width="14" height="68" rx="1"/>
        <rect x="410" y="96" width="14" height="28" rx="1"/>
      </g>
      <!-- A -->
      <g fill="#ffee00">
        <rect x="465" y="82" width="14" height="68" rx="1"/>
        <rect x="465" y="82" width="58" height="14" rx="1"/>
        <rect x="509" y="82" width="14" height="68" rx="1"/>
        <rect x="465" y="108" width="58" height="14" rx="1"/>
      </g>
      <!-- N -->
      <g fill="#ffee00">
        <rect x="540" y="82" width="14" height="68" rx="1"/>
        <rect x="540" y="82" width="58" height="14" rx="1"/>
        <rect x="584" y="82" width="14" height="68" rx="1"/>
      </g>
    </g>
  </g>

  <!-- Glitch bar decorations -->
  <rect x="70" y="165" width="130" height="3" fill="#ff0088" opacity="0.35"/>
  <rect x="600" y="160" width="110" height="2" fill="#00ffff" opacity="0.25"/>
  <rect x="340" y="168" width="80" height="2" fill="#ffee00" opacity="0.2"/>

  <!-- Neon divider -->
  <line x1="80" y1="180" x2="720" y2="180" stroke="#ff0088" stroke-width="1" opacity="0.5" filter="url(#neonPink)"/>
  <line x1="100" y1="185" x2="700" y2="185" stroke="#00ffcc" stroke-width="0.5" opacity="0.25"/>

  <!-- ===== MAZE — neon magenta/pink walls ===== -->
  <g stroke="#ff0088" stroke-width="2.5" fill="none" stroke-linecap="round" stroke-linejoin="round" filter="url(#neonPink)">
    <!-- Outer border -->
    <rect x="100" y="205" width="600" height="680" rx="10"/>
    <!-- Inner border -->
    <rect x="112" y="217" width="576" height="656" rx="6"/>

    <!-- Top section walls -->
    <rect x="150" y="248" width="80" height="32" rx="3"/>
    <rect x="260" y="248" width="55" height="32" rx="3"/>
    <rect x="365" y="224" width="70" height="18" rx="3"/>
    <rect x="485" y="248" width="55" height="32" rx="3"/>
    <rect x="570" y="248" width="80" height="32" rx="3"/>

    <!-- Second row walls -->
    <rect x="150" y="310" width="80" height="22" rx="3"/>
    <rect x="260" y="310" width="14" height="65" rx="3"/>
    <rect x="260" y="310" width="55" height="14" rx="3"/>
    <rect x="365" y="270" width="70" height="60" rx="3"/>
    <rect x="485" y="310" width="55" height="14" rx="3"/>
    <rect x="526" y="310" width="14" height="65" rx="3"/>
    <rect x="570" y="310" width="80" height="22" rx="3"/>

    <!-- Ghost house -->
    <rect x="320" y="415" width="160" height="75" rx="5" stroke="#aa00ff" stroke-width="2"/>
    <line x1="370" y1="415" x2="430" y2="415" stroke="#000" stroke-width="3"/>
    <line x1="370" y1="415" x2="430" y2="415" stroke="#aa00ff" stroke-width="1.5" stroke-dasharray="4,3"/>

    <!-- Side walls -->
    <rect x="150" y="365" width="80" height="14" rx="3"/>
    <rect x="570" y="365" width="80" height="14" rx="3"/>

    <!-- Tunnels -->
    <rect x="100" y="435" width="55" height="38" rx="3"/>
    <rect x="645" y="435" width="55" height="38" rx="3"/>

    <!-- Lower walls -->
    <rect x="150" y="520" width="80" height="22" rx="3"/>
    <rect x="260" y="520" width="55" height="14" rx="3"/>
    <rect x="260" y="520" width="14" height="55" rx="3"/>
    <rect x="485" y="520" width="55" height="14" rx="3"/>
    <rect x="526" y="520" width="14" height="55" rx="3"/>
    <rect x="570" y="520" width="80" height="22" rx="3"/>

    <rect x="150" y="575" width="80" height="14" rx="3"/>
    <rect x="570" y="575" width="80" height="14" rx="3"/>

    <!-- Bottom section -->
    <rect x="150" y="622" width="180" height="14" rx="3"/>
    <rect x="470" y="622" width="180" height="14" rx="3"/>
    <rect x="365" y="600" width="70" height="38" rx="3"/>

    <rect x="150" y="672" width="80" height="32" rx="3"/>
    <rect x="260" y="686" width="110" height="14" rx="3"/>
    <rect x="430" y="686" width="110" height="14" rx="3"/>
    <rect x="570" y="672" width="80" height="32" rx="3"/>

    <rect x="150" y="740" width="500" height="14" rx="3"/>
  </g>

  <!-- ===== DOTS — neon cyan ===== -->
  <g fill="#00ffcc" opacity="0.8">
    <circle cx="135" cy="233" r="2.5"/>
    <circle cx="155" cy="233" r="2.5"/>
    <circle cx="175" cy="233" r="2.5"/>
    <circle cx="245" cy="233" r="2.5"/>
    <circle cx="265" cy="233" r="2.5"/>
    <circle cx="285" cy="233" r="2.5"/>
    <circle cx="305" cy="233" r="2.5"/>
    <circle cx="325" cy="233" r="2.5"/>
    <circle cx="345" cy="233" r="2.5"/>
    <circle cx="455" cy="233" r="2.5"/>
    <circle cx="475" cy="233" r="2.5"/>
    <circle cx="495" cy="233" r="2.5"/>
    <circle cx="515" cy="233" r="2.5"/>
    <circle cx="535" cy="233" r="2.5"/>
    <circle cx="555" cy="233" r="2.5"/>
    <circle cx="625" cy="233" r="2.5"/>
    <circle cx="645" cy="233" r="2.5"/>
    <circle cx="665" cy="233" r="2.5"/>

    <circle cx="135" cy="258" r="2.5"/>
    <circle cx="135" cy="283" r="2.5"/>
    <circle cx="135" cy="340" r="2.5"/>
    <circle cx="135" cy="365" r="2.5"/>
    <circle cx="135" cy="410" r="2.5"/>
    <circle cx="135" cy="500" r="2.5"/>
    <circle cx="135" cy="525" r="2.5"/>
    <circle cx="135" cy="550" r="2.5"/>
    <circle cx="135" cy="605" r="2.5"/>
    <circle cx="135" cy="650" r="2.5"/>
    <circle cx="135" cy="720" r="2.5"/>

    <circle cx="665" cy="258" r="2.5"/>
    <circle cx="665" cy="283" r="2.5"/>
    <circle cx="665" cy="340" r="2.5"/>
    <circle cx="665" cy="365" r="2.5"/>
    <circle cx="665" cy="410" r="2.5"/>
    <circle cx="665" cy="500" r="2.5"/>
    <circle cx="665" cy="525" r="2.5"/>
    <circle cx="665" cy="550" r="2.5"/>
    <circle cx="665" cy="605" r="2.5"/>
    <circle cx="665" cy="650" r="2.5"/>
    <circle cx="665" cy="720" r="2.5"/>

    <circle cx="245" cy="300" r="2.5"/>
    <circle cx="245" cy="350" r="2.5"/>
    <circle cx="245" cy="400" r="2.5"/>
    <circle cx="555" cy="300" r="2.5"/>
    <circle cx="555" cy="350" r="2.5"/>
    <circle cx="555" cy="400" r="2.5"/>

    <circle cx="245" cy="610" r="2.5"/>
    <circle cx="245" cy="660" r="2.5"/>
    <circle cx="555" cy="610" r="2.5"/>
    <circle cx="555" cy="660" r="2.5"/>

    <circle cx="155" cy="770" r="2.5"/>
    <circle cx="195" cy="770" r="2.5"/>
    <circle cx="235" cy="770" r="2.5"/>
    <circle cx="345" cy="770" r="2.5"/>
    <circle cx="385" cy="770" r="2.5"/>
    <circle cx="425" cy="770" r="2.5"/>
    <circle cx="535" cy="770" r="2.5"/>
    <circle cx="575" cy="770" r="2.5"/>
    <circle cx="615" cy="770" r="2.5"/>
    <circle cx="655" cy="770" r="2.5"/>
  </g>

  <!-- Power pellets — glowing magenta -->
  <g filter="url(#heavyGlow)">
    <circle cx="130" cy="295" r="8" fill="#ff00ff"/>
    <circle cx="670" cy="295" r="8" fill="#ff00ff"/>
    <circle cx="130" cy="660" r="8" fill="#ff00ff"/>
    <circle cx="670" cy="660" r="8" fill="#ff00ff"/>
  </g>

  <!-- ===== PAC-MAN — neon yellow ===== -->
  <g transform="translate(295, 545)" filter="url(#neonYellow)">
    <circle cx="24" cy="24" r="24" fill="#ffee00"/>
    <polygon points="24,24 50,8 50,40" fill="url(#bgGrad)"/>
    <circle cx="24" cy="12" r="4" fill="#000"/>
  </g>

  <!-- Dot trail -->
  <g filter="url(#neonCyan)">
    <circle cx="360" cy="569" r="2.5" fill="#00ffcc"/>
    <circle cx="380" cy="569" r="2.5" fill="#00ffcc"/>
    <circle cx="400" cy="569" r="2.5" fill="#00ffcc"/>
    <circle cx="420" cy="569" r="2.5" fill="#00ffcc"/>
    <circle cx="440" cy="569" r="2.5" fill="#00ffcc"/>
  </g>

  <!-- ===== GHOSTS — each with unique neon color ===== -->
  <!-- Blinky (neon red) -->
  <g transform="translate(350, 425)" filter="url(#neonRed)">
    <rect x="4" y="0" width="32" height="8" fill="#ff2244" rx="4"/>
    <rect x="0" y="8" width="40" height="24" fill="#ff2244"/>
    <rect x="0" y="32" width="8" height="8" fill="#ff2244"/>
    <rect x="16" y="32" width="8" height="8" fill="#ff2244"/>
    <rect x="32" y="32" width="8" height="8" fill="#ff2244"/>
    <rect x="8" y="12" width="10" height="12" fill="#fff" rx="3"/>
    <rect x="24" y="12" width="10" height="12" fill="#fff" rx="3"/>
    <rect x="12" y="16" width="6" height="8" fill="#ff00ff" rx="2"/>
    <rect x="28" y="16" width="6" height="8" fill="#ff00ff" rx="2"/>
  </g>

  <!-- Pinky (neon magenta) -->
  <g transform="translate(390, 425)" filter="url(#neonPink)">
    <rect x="4" y="0" width="32" height="8" fill="#ff44cc" rx="4"/>
    <rect x="0" y="8" width="40" height="24" fill="#ff44cc"/>
    <rect x="0" y="32" width="8" height="8" fill="#ff44cc"/>
    <rect x="16" y="32" width="8" height="8" fill="#ff44cc"/>
    <rect x="32" y="32" width="8" height="8" fill="#ff44cc"/>
    <rect x="8" y="12" width="10" height="12" fill="#fff" rx="3"/>
    <rect x="24" y="12" width="10" height="12" fill="#fff" rx="3"/>
    <rect x="10" y="16" width="6" height="8" fill="#ff00ff" rx="2"/>
    <rect x="26" y="16" width="6" height="8" fill="#ff00ff" rx="2"/>
  </g>

  <!-- Inky (neon cyan) -->
  <g transform="translate(430, 425)" filter="url(#neonCyan)">
    <rect x="4" y="0" width="32" height="8" fill="#00ffff" rx="4"/>
    <rect x="0" y="8" width="40" height="24" fill="#00ffff"/>
    <rect x="0" y="32" width="8" height="8" fill="#00ffff"/>
    <rect x="16" y="32" width="8" height="8" fill="#00ffff"/>
    <rect x="32" y="32" width="8" height="8" fill="#00ffff"/>
    <rect x="8" y="12" width="10" height="12" fill="#fff" rx="3"/>
    <rect x="24" y="12" width="10" height="12" fill="#fff" rx="3"/>
    <rect x="14" y="16" width="6" height="8" fill="#0044ff" rx="2"/>
    <rect x="30" y="16" width="6" height="8" fill="#0044ff" rx="2"/>
  </g>

  <!-- Clyde (neon orange) -->
  <g transform="translate(350, 465)" filter="url(#neonOrange)">
    <rect x="4" y="0" width="32" height="8" fill="#ffaa00" rx="4"/>
    <rect x="0" y="8" width="40" height="24" fill="#ffaa00"/>
    <rect x="0" y="32" width="8" height="8" fill="#ffaa00"/>
    <rect x="16" y="32" width="8" height="8" fill="#ffaa00"/>
    <rect x="32" y="32" width="8" height="8" fill="#ffaa00"/>
    <rect x="8" y="12" width="10" height="12" fill="#fff" rx="3"/>
    <rect x="24" y="12" width="10" height="12" fill="#fff" rx="3"/>
    <rect x="10" y="16" width="6" height="8" fill="#ff4400" rx="2"/>
    <rect x="26" y="16" width="6" height="8" fill="#ff4400" rx="2"/>
  </g>

  <!-- ===== CHERRY — neon ===== -->
  <g transform="translate(385, 795)" filter="url(#neonRed)">
    <circle cx="8" cy="16" r="8" fill="#ff0044"/>
    <circle cx="22" cy="18" r="7" fill="#ff0044"/>
    <circle cx="10" cy="14" r="3" fill="#ff4488" opacity="0.6"/>
    <line x1="8" y1="8" x2="16" y2="-2" stroke="#00ff88" stroke-width="2"/>
    <line x1="22" y1="10" x2="16" y2="-2" stroke="#00ff88" stroke-width="2"/>
    <ellipse cx="20" cy="-2" rx="6" ry="3" fill="#00ffaa" opacity="0.7"/>
  </g>

  <!-- ===== GHOST LINEUP BOTTOM ===== -->
  <g transform="translate(0, 855)">
    <rect x="80" y="0" width="640" height="1" fill="#ff0088" opacity="0.3"/>
    <rect x="100" y="4" width="600" height="0.5" fill="#00ffcc" opacity="0.2"/>

    <circle cx="180" cy="35" r="12" fill="#ff2244" filter="url(#neonRed)"/>
    <text x="180" y="62" text-anchor="middle" font-family="'Courier New', monospace" font-size="10" fill="#ff2244" letter-spacing="2" filter="url(#neonRed)">&gt;BLINKY</text>

    <circle cx="310" cy="35" r="12" fill="#ff44cc" filter="url(#neonPink)"/>
    <text x="310" y="62" text-anchor="middle" font-family="'Courier New', monospace" font-size="10" fill="#ff44cc" letter-spacing="2" filter="url(#neonPink)">&gt;PINKY</text>

    <circle cx="440" cy="35" r="12" fill="#00ffff" filter="url(#neonCyan)"/>
    <text x="440" y="62" text-anchor="middle" font-family="'Courier New', monospace" font-size="10" fill="#00ffff" letter-spacing="2" filter="url(#neonCyan)">&gt;INKY</text>

    <circle cx="570" cy="35" r="12" fill="#ffaa00" filter="url(#neonOrange)"/>
    <text x="570" y="62" text-anchor="middle" font-family="'Courier New', monospace" font-size="10" fill="#ffaa00" letter-spacing="2" filter="url(#neonOrange)">&gt;CLYDE</text>
  </g>

  <!-- ===== LIVES ===== -->
  <g transform="translate(120, 985)" filter="url(#neonYellow)">
    <circle cx="12" cy="10" r="9" fill="#ffee00"/>
    <polygon points="12,10 22,4 22,16" fill="#08000f"/>
    <circle cx="40" cy="10" r="9" fill="#ffee00"/>
    <polygon points="40,10 50,4 50,16" fill="#08000f"/>
  </g>

  <!-- Level indicators -->
  <g transform="translate(590, 985)" filter="url(#neonRed)">
    <circle cx="10" cy="10" r="6" fill="#ff0044"/>
    <circle cx="30" cy="10" r="6" fill="#ffaa00"/>
    <circle cx="50" cy="10" r="6" fill="#ffaa00"/>
  </g>

  <!-- Footer -->
  <line x1="100" y1="1020" x2="700" y2="1020" stroke="#ff0088" stroke-width="0.5" opacity="0.2"/>
  <text x="400" y="1050" text-anchor="middle" font-family="'Courier New', monospace" font-size="11" fill="#ff0088" letter-spacing="4" opacity="0.5">© 1980 NAMCO // NEON DISTRICT ED.</text>
  <text x="400" y="1078" text-anchor="middle" font-family="'Courier New', monospace" font-size="12" fill="#00ffcc" letter-spacing="5" filter="url(#neonCyan)" opacity="0.6">CREDIT ▮▮</text>

  <!-- Scanlines -->
  <rect width="800" height="1100" fill="url(#scanlines)" pointer-events="none" opacity="0.4"/>
  <!-- Vignette -->
  <rect width="800" height="1100" fill="url(#vignette)" pointer-events="none"/>
</svg>